<svg xmlns="http://www.w3.org/2000/svg" xmlns:xlink="http://www.w3.org/1999/xlink" width="144" zoomAndPan="magnify" viewBox="0 0 108 107.999999" height="144" preserveAspectRatio="xMidYMid meet" version="1.0"><defs><clipPath id="31be58aebb"><path d="M 7.070312 8.066406 L 100.820312 8.066406 L 100.820312 58 L 7.070312 58 Z M 7.070312 8.066406 " clip-rule="nonzero"/></clipPath><clipPath id="c305e3abda"><path d="M 11 59 L 96 59 L 96 99.566406 L 11 99.566406 Z M 11 59 " clip-rule="nonzero"/></clipPath><clipPath id="b59a88d314"><path d="M 41 78 L 66 78 L 66 99.566406 L 41 99.566406 Z M 41 78 " clip-rule="nonzero"/></clipPath></defs><g clip-path="url(#31be58aebb)"><path fill="#ffffff" d="M 99.976562 39.339844 L 98.605469 34.257812 C 98.25 32.929688 97.703125 31.683594 96.96875 30.523438 L 90.367188 8.085938 L 17.175781 8.085938 L 10.542969 30.640625 L 7.160156 42.136719 L 7.136719 42.210938 C 7.136719 42.324219 7.136719 42.433594 7.136719 42.542969 C 7.078125 45.210938 7.730469 47.683594 9.101562 49.972656 C 10.023438 51.515625 11.195312 52.84375 12.609375 53.953125 C 14.027344 55.0625 15.59375 55.878906 17.3125 56.40625 C 17.320312 56.410156 17.324219 56.410156 17.328125 56.40625 C 17.496094 56.460938 17.679688 56.511719 17.855469 56.558594 C 19.007812 56.878906 20.183594 57.050781 21.382812 57.078125 C 22.578125 57.105469 23.761719 56.984375 24.929688 56.71875 C 26.097656 56.449219 27.214844 56.042969 28.28125 55.5 C 29.347656 54.957031 30.332031 54.289062 31.234375 53.5 C 31.683594 53.101562 32.109375 52.671875 32.503906 52.21875 C 32.824219 52.625 33.164062 53.011719 33.53125 53.378906 C 33.894531 53.746094 34.28125 54.089844 34.6875 54.410156 C 35.09375 54.726562 35.519531 55.023438 35.960938 55.292969 C 36.402344 55.5625 36.855469 55.804688 37.328125 56.019531 C 37.796875 56.234375 38.277344 56.421875 38.773438 56.578125 C 39.265625 56.734375 39.765625 56.863281 40.273438 56.960938 C 40.78125 57.058594 41.292969 57.128906 41.808594 57.164062 C 42.324219 57.199219 42.839844 57.207031 43.355469 57.183594 C 43.875 57.15625 44.386719 57.101562 44.898438 57.015625 C 45.40625 56.929688 45.910156 56.8125 46.40625 56.667969 C 46.902344 56.519531 47.386719 56.347656 47.863281 56.140625 C 48.339844 55.9375 48.800781 55.707031 49.25 55.445312 C 49.695312 55.1875 50.125 54.902344 50.539062 54.59375 C 50.953125 54.28125 51.347656 53.949219 51.722656 53.589844 C 52.09375 53.234375 52.445312 52.855469 52.773438 52.453125 C 53.101562 52.054688 53.40625 51.636719 53.6875 51.203125 C 53.945312 51.609375 54.230469 52.003906 54.535156 52.378906 C 54.839844 52.753906 55.164062 53.113281 55.507812 53.453125 C 55.855469 53.792969 56.21875 54.113281 56.597656 54.414062 C 56.980469 54.714844 57.375 54.992188 57.789062 55.246094 C 58.199219 55.5 58.625 55.734375 59.0625 55.941406 C 59.5 56.148438 59.949219 56.332031 60.40625 56.488281 C 60.863281 56.648438 61.328125 56.777344 61.800781 56.882812 C 62.273438 56.988281 62.753906 57.070312 63.234375 57.121094 C 63.714844 57.175781 64.199219 57.199219 64.683594 57.199219 C 65.167969 57.195312 65.652344 57.167969 66.132812 57.113281 C 66.613281 57.054688 67.089844 56.972656 67.5625 56.863281 C 68.035156 56.753906 68.5 56.621094 68.957031 56.460938 C 69.414062 56.296875 69.859375 56.113281 70.296875 55.902344 C 70.730469 55.691406 71.15625 55.457031 71.566406 55.199219 C 71.976562 54.941406 72.371094 54.660156 72.75 54.359375 C 73.128906 54.054688 73.488281 53.734375 73.832031 53.390625 C 74.238281 52.980469 74.617188 52.546875 74.96875 52.089844 C 75.394531 52.59375 75.855469 53.0625 76.351562 53.5 C 77.25 54.289062 78.234375 54.957031 79.300781 55.5 C 80.363281 56.046875 81.480469 56.453125 82.644531 56.71875 C 83.8125 56.988281 84.992188 57.109375 86.191406 57.085938 C 87.386719 57.058594 88.5625 56.886719 89.714844 56.570312 L 89.726562 56.570312 C 91.558594 56.085938 93.230469 55.269531 94.746094 54.128906 C 96.261719 52.988281 97.507812 51.605469 98.480469 49.980469 C 99.441406 48.382812 100.050781 46.660156 100.308594 44.8125 C 100.570312 42.964844 100.457031 41.140625 99.976562 39.339844 Z M 99.976562 39.339844 " fill-opacity="1" fill-rule="nonzero"/></g><g clip-path="url(#c305e3abda)"><path fill="#ffffff" d="M 89.878906 64.828125 C 88.71875 65.160156 87.539062 65.339844 86.332031 65.363281 C 85.128906 65.386719 83.941406 65.257812 82.769531 64.972656 C 81.597656 64.6875 80.480469 64.257812 79.421875 63.683594 C 78.363281 63.109375 77.394531 62.410156 76.515625 61.582031 C 76.019531 61.121094 75.558594 60.625 75.132812 60.09375 C 74.785156 60.578125 74.40625 61.035156 73.996094 61.46875 C 72.804688 62.742188 71.414062 63.730469 69.816406 64.425781 C 68.21875 65.125 66.546875 65.476562 64.804688 65.484375 C 60.203125 65.484375 56.160156 62.960938 53.851562 59.152344 C 53.34375 59.984375 52.757812 60.753906 52.089844 61.460938 C 50.898438 62.738281 49.507812 63.722656 47.910156 64.421875 C 46.3125 65.121094 44.640625 65.472656 42.898438 65.480469 C 38.746094 65.480469 35.046875 63.421875 32.667969 60.222656 C 32.273438 60.699219 31.851562 61.148438 31.398438 61.574219 C 30.519531 62.398438 29.550781 63.101562 28.488281 63.675781 C 27.429688 64.25 26.3125 64.679688 25.140625 64.964844 C 23.964844 65.25 22.777344 65.378906 21.570312 65.351562 C 20.363281 65.328125 19.183594 65.148438 18.023438 64.8125 C 17.855469 64.765625 17.671875 64.710938 17.5 64.648438 C 17.492188 64.648438 17.488281 64.648438 17.480469 64.648438 C 15.300781 63.929688 13.394531 62.757812 11.769531 61.132812 L 11.769531 91.238281 C 11.769531 96.027344 15.449219 99.910156 19.984375 99.910156 L 34.863281 99.910156 L 34.863281 78.121094 C 34.863281 77.703125 34.90625 77.285156 34.988281 76.875 C 35.070312 76.460938 35.191406 76.0625 35.351562 75.671875 C 35.511719 75.285156 35.710938 74.917969 35.941406 74.566406 C 36.175781 74.21875 36.441406 73.894531 36.738281 73.597656 C 37.035156 73.300781 37.359375 73.035156 37.707031 72.800781 C 38.058594 72.566406 38.425781 72.371094 38.8125 72.210938 C 39.203125 72.050781 39.601562 71.929688 40.015625 71.847656 C 40.425781 71.765625 40.84375 71.722656 41.261719 71.722656 L 66.164062 71.722656 C 66.585938 71.722656 67 71.765625 67.414062 71.847656 C 67.824219 71.929688 68.226562 72.050781 68.613281 72.210938 C 69 72.371094 69.371094 72.566406 69.71875 72.800781 C 70.070312 73.035156 70.394531 73.300781 70.691406 73.597656 C 70.988281 73.894531 71.253906 74.21875 71.484375 74.566406 C 71.71875 74.917969 71.914062 75.285156 72.078125 75.671875 C 72.238281 76.0625 72.359375 76.460938 72.441406 76.875 C 72.523438 77.285156 72.5625 77.703125 72.5625 78.121094 L 72.5625 99.910156 L 87.601562 99.910156 C 92.136719 99.910156 95.816406 96.027344 95.816406 91.238281 L 95.816406 61.460938 C 94.113281 63.0625 92.136719 64.183594 89.890625 64.824219 Z M 89.878906 64.828125 " fill-opacity="1" fill-rule="nonzero"/></g><g clip-path="url(#b59a88d314)"><path fill="#ffffff" d="M 63.765625 78.410156 L 43.515625 78.410156 C 43.296875 78.410156 43.082031 78.453125 42.875 78.539062 C 42.671875 78.621094 42.492188 78.742188 42.332031 78.898438 C 42.175781 79.058594 42.054688 79.238281 41.972656 79.441406 C 41.886719 79.648438 41.84375 79.859375 41.84375 80.082031 L 41.84375 99.910156 L 65.4375 99.910156 L 65.4375 80.082031 C 65.4375 79.859375 65.394531 79.644531 65.308594 79.441406 C 65.222656 79.238281 65.101562 79.054688 64.945312 78.898438 C 64.789062 78.742188 64.609375 78.621094 64.402344 78.535156 C 64.199219 78.453125 63.984375 78.410156 63.765625 78.410156 Z M 63.765625 78.410156 " fill-opacity="1" fill-rule="nonzero"/></g></svg>