<svg xmlns="http://www.w3.org/2000/svg" xmlns:xlink="http://www.w3.org/1999/xlink" width="144" zoomAndPan="magnify" viewBox="0 0 108 107.999999" height="144" preserveAspectRatio="xMidYMid meet" version="1.0"><defs><clipPath id="114f423491"><path d="M 0 7.0625 L 106.5 7.0625 L 106.5 100.8125 L 0 100.8125 Z M 0 7.0625 " clip-rule="nonzero"/></clipPath></defs><g clip-path="url(#114f423491)"><path fill="#ffffff" d="M 53.308594 7.0625 C 52.351562 7.0625 51.503906 7.367188 50.761719 7.976562 L 1.972656 48.097656 C 1.769531 48.261719 1.585938 48.449219 1.417969 48.652344 C 1.253906 48.855469 1.105469 49.074219 0.984375 49.304688 C 0.859375 49.539062 0.757812 49.78125 0.683594 50.03125 C 0.605469 50.285156 0.554688 50.542969 0.53125 50.804688 C 0.503906 51.066406 0.503906 51.328125 0.53125 51.589844 C 0.558594 51.851562 0.609375 52.109375 0.6875 52.359375 C 0.761719 52.613281 0.863281 52.855469 0.988281 53.085938 C 1.113281 53.316406 1.257812 53.535156 1.425781 53.738281 C 1.589844 53.941406 1.777344 54.128906 1.980469 54.292969 C 2.183594 54.460938 2.402344 54.605469 2.632812 54.730469 C 2.867188 54.855469 3.109375 54.953125 3.359375 55.03125 C 3.613281 55.105469 3.871094 55.15625 4.132812 55.183594 C 4.394531 55.207031 4.65625 55.207031 4.917969 55.179688 C 5.179688 55.15625 5.4375 55.105469 5.6875 55.027344 C 5.941406 54.949219 6.183594 54.851562 6.414062 54.726562 C 6.644531 54.601562 6.863281 54.457031 7.066406 54.289062 L 53.308594 16.261719 L 99.550781 54.289062 C 99.753906 54.457031 99.972656 54.601562 100.203125 54.726562 C 100.433594 54.851562 100.675781 54.949219 100.929688 55.027344 C 101.179688 55.105469 101.4375 55.15625 101.699219 55.183594 C 101.960938 55.207031 102.222656 55.207031 102.484375 55.183594 C 102.746094 55.15625 103.003906 55.105469 103.257812 55.03125 C 103.507812 54.953125 103.75 54.855469 103.984375 54.730469 C 104.214844 54.605469 104.433594 54.460938 104.636719 54.292969 C 104.839844 54.128906 105.027344 53.941406 105.195312 53.738281 C 105.359375 53.535156 105.507812 53.316406 105.628906 53.085938 C 105.753906 52.855469 105.855469 52.613281 105.933594 52.359375 C 106.007812 52.109375 106.058594 51.851562 106.085938 51.589844 C 106.113281 51.328125 106.113281 51.066406 106.085938 50.804688 C 106.0625 50.542969 106.011719 50.285156 105.933594 50.03125 C 105.859375 49.78125 105.757812 49.539062 105.632812 49.304688 C 105.511719 49.074219 105.367188 48.855469 105.199219 48.652344 C 105.03125 48.449219 104.847656 48.261719 104.644531 48.097656 L 55.855469 7.976562 C 55.113281 7.367188 54.265625 7.0625 53.308594 7.0625 Z M 53.308594 26.023438 C 52.351562 26.023438 51.503906 26.328125 50.761719 26.933594 L 13.25 57.785156 C 12.785156 58.164062 12.425781 58.625 12.171875 59.167969 C 11.914062 59.710938 11.785156 60.28125 11.785156 60.878906 L 11.785156 96.933594 C 11.785156 97.199219 11.8125 97.457031 11.863281 97.714844 C 11.914062 97.976562 11.992188 98.226562 12.09375 98.46875 C 12.191406 98.710938 12.316406 98.941406 12.460938 99.160156 C 12.609375 99.378906 12.773438 99.582031 12.960938 99.769531 C 13.148438 99.957031 13.351562 100.121094 13.570312 100.269531 C 13.789062 100.414062 14.019531 100.539062 14.261719 100.636719 C 14.503906 100.738281 14.753906 100.816406 15.015625 100.867188 C 15.273438 100.917969 15.53125 100.945312 15.796875 100.945312 L 90.820312 100.945312 C 91.085938 100.945312 91.347656 100.917969 91.605469 100.867188 C 91.863281 100.816406 92.113281 100.738281 92.355469 100.636719 C 92.597656 100.539062 92.832031 100.414062 93.050781 100.269531 C 93.269531 100.121094 93.46875 99.957031 93.65625 99.769531 C 93.84375 99.582031 94.007812 99.378906 94.15625 99.160156 C 94.300781 98.941406 94.425781 98.710938 94.527344 98.46875 C 94.625 98.226562 94.703125 97.976562 94.753906 97.714844 C 94.804688 97.457031 94.832031 97.199219 94.832031 96.933594 L 94.832031 60.878906 C 94.832031 60.28125 94.703125 59.710938 94.445312 59.167969 C 94.191406 58.625 93.832031 58.164062 93.367188 57.785156 L 55.855469 26.933594 C 55.113281 26.328125 54.265625 26.023438 53.308594 26.023438 Z M 53.308594 26.023438 " fill-opacity="1" fill-rule="nonzero"/></g></svg>