<svg xmlns="http://www.w3.org/2000/svg" xmlns:xlink="http://www.w3.org/1999/xlink" width="144" zoomAndPan="magnify" viewBox="0 0 108 107.999999" height="144" preserveAspectRatio="xMidYMid meet" version="1.0"><defs><clipPath id="e0979d05e4"><path d="M 16 43 L 91.71875 43 L 91.71875 100 L 16 100 Z M 16 43 " clip-rule="nonzero"/></clipPath><clipPath id="099fb9f57d"><path d="M 34 5.398438 L 76 5.398438 L 76 47 L 34 47 Z M 34 5.398438 " clip-rule="nonzero"/></clipPath></defs><g clip-path="url(#e0979d05e4)"><path fill="#ffffff" d="M 18.640625 91.910156 C 42.199219 102.585938 65.757812 102.585938 89.320312 91.910156 C 90.914062 91.183594 91.917969 89.574219 91.828125 87.820312 L 90.78125 68.335938 C 90.679688 56.496094 82.90625 45.875 71.796875 43.75 C 67.378906 47.925781 61.429688 50.492188 54.886719 50.492188 C 48.34375 50.492188 42.160156 47.824219 37.71875 43.507812 C 25.789062 44.898438 17.289062 55.953125 17.183594 68.339844 L 16.136719 87.820312 C 16.042969 89.570312 17.046875 91.183594 18.644531 91.910156 Z M 18.640625 91.910156 " fill-opacity="1" fill-rule="nonzero"/></g><g clip-path="url(#099fb9f57d)"><path fill="#ffffff" d="M 43.269531 42.671875 C 46.566406 44.957031 50.570312 46.296875 54.886719 46.296875 C 59.203125 46.296875 62.835938 45.078125 66.046875 42.980469 C 71.636719 39.332031 75.335938 33.023438 75.335938 25.847656 C 75.335938 14.554688 66.179688 5.398438 54.886719 5.398438 C 43.59375 5.398438 34.4375 14.558594 34.4375 25.847656 C 34.4375 32.824219 37.933594 38.984375 43.269531 42.671875 Z M 43.269531 42.671875 " fill-opacity="1" fill-rule="nonzero"/></g></svg>